<?xml version="1.0" standalone="no"?>
<!DOCTYPE svg PUBLIC "-//W3C//DTD SVG 20010904//EN"
 "http://www.w3.org/TR/2001/REC-SVG-20010904/DTD/svg10.dtd">
<svg version="1.0" xmlns="http://www.w3.org/2000/svg"
 width="1000.000000pt" height="1000.000000pt" viewBox="0 0 1000.000000 1000.000000"
 preserveAspectRatio="xMidYMid meet">
<metadata>
Created by potrace 1.15, written by Peter Selinger 2001-2017
</metadata>
<g transform="translate(0.000000,1000.000000) scale(0.100000,-0.100000)"
fill="#000000" stroke="none">
<path d="M4755 9969 c-1466 -62 -2808 -766 -3685 -1934 -577 -768 -909 -1666
-981 -2650 -14 -201 -6 -700 15 -885 106 -942 432 -1781 972 -2503 594 -793
1375 -1372 2294 -1700 726 -258 1553 -335 2350 -216 1203 179 2319 828 3098
1800 638 796 1015 1758 1091 2784 14 179 14 562 1 736 -111 1436 -812 2726
-1950 3583 -707 532 -1530 859 -2420 960 -109 13 -581 40 -600 34 -3 0 -86 -5
-185 -9z m485 -219 c1184 -68 2260 -549 3090 -1380 757 -758 1216 -1718 1347
-2815 22 -190 25 -812 5 -1000 -146 -1333 -781 -2490 -1817 -3311 -971 -769
-2247 -1122 -3473 -963 -1346 174 -2525 912 -3289 2059 -455 684 -729 1488
-794 2329 -15 204 -7 718 16 906 151 1275 758 2384 1737 3170 166 133 457 328
648 433 766 422 1651 622 2530 572z"/>
<path d="M4920 9407 c0 -46 3 -179 7 -295 l6 -212 178 0 177 0 7 41 c4 22 5
42 2 45 -2 3 -57 7 -121 11 l-116 6 0 74 0 73 94 0 c101 0 105 3 106 66 0 29
-17 34 -116 34 l-84 0 0 74 0 73 135 -5 135 -5 0 45 c0 39 -3 47 -22 52 -13 3
-105 6 -205 6 l-183 0 0 -83z"/>
<path d="M4702 9464 c-12 -8 -47 -65 -78 -125 -49 -98 -75 -132 -90 -117 -2 3
-10 53 -17 111 -7 59 -16 109 -19 113 -4 3 -34 3 -67 -1 -47 -5 -61 -11 -61
-24 0 -29 79 -553 84 -558 10 -10 116 8 116 20 -1 7 -7 61 -14 122 -8 60 -12
113 -10 117 3 5 14 8 24 8 14 0 41 -33 91 -107 39 -60 79 -114 88 -121 11 -9
33 -11 76 -6 33 3 61 8 63 9 5 5 -146 240 -173 269 l-25 27 84 139 84 140 -67
0 c-44 0 -74 -5 -89 -16z"/>
<path d="M5416 9468 c-2 -7 -14 -130 -25 -273 -12 -143 -24 -270 -26 -281 -4
-20 0 -22 58 -26 34 -3 63 -4 65 -3 2 2 9 49 15 106 11 91 15 104 32 107 32 4
49 -17 96 -122 24 -54 53 -104 64 -111 11 -7 46 -16 77 -20 l58 -6 -41 98
c-23 54 -49 114 -60 134 l-18 37 30 12 c75 32 112 86 112 166 0 98 -73 153
-228 173 -174 21 -205 23 -209 9z m254 -118 c11 -6 27 -22 36 -35 13 -20 14
-30 4 -60 -15 -45 -53 -65 -126 -65 l-56 0 6 58 c4 31 10 72 13 91 l6 33 48
-5 c27 -3 58 -11 69 -17z"/>
<path d="M6059 9375 c-61 -20 -105 -70 -114 -129 -13 -86 22 -139 127 -192 89
-45 111 -89 65 -132 -39 -37 -116 -22 -168 34 -30 32 -59 30 -93 -5 -33 -35
-27 -54 31 -94 92 -64 234 -76 305 -28 48 34 80 83 85 136 10 81 -12 110 -144
189 -71 42 -87 73 -58 106 12 14 31 20 57 20 43 0 68 -11 111 -46 37 -31 55
-30 97 5 l35 29 -28 30 c-66 69 -216 107 -308 77z"/>
<path d="M3945 9353 c-55 -14 -101 -26 -103 -27 -2 -3 148 -559 153 -564 4 -4
99 20 107 27 4 3 -4 51 -18 105 -20 80 -23 101 -12 107 28 18 47 6 119 -75 41
-46 80 -87 88 -90 16 -8 103 3 122 14 13 9 -33 69 -132 172 l-45 48 24 22 c78
72 62 226 -28 270 -50 25 -153 22 -275 -9z m215 -103 c13 -24 13 -76 0 -99
-10 -20 -78 -51 -109 -51 -14 0 -21 16 -36 80 -10 44 -16 82 -13 85 3 3 25 9
49 13 51 10 95 -2 109 -28z"/>
<path d="M3505 9237 c-105 -35 -160 -81 -198 -166 -15 -35 -18 -59 -15 -120
16 -271 311 -399 495 -216 40 41 55 65 69 111 29 100 5 223 -60 309 -56 72
-198 113 -291 82z m147 -122 c44 -30 85 -109 93 -180 9 -72 -23 -132 -88 -164
-59 -29 -103 -23 -153 21 -38 33 -77 102 -89 156 -29 135 125 244 237 167z"/>
<path d="M6695 9161 c-132 -35 -205 -132 -213 -283 -4 -76 -1 -92 21 -140 31
-69 80 -118 153 -154 149 -73 322 -10 406 148 31 59 33 193 3 253 -59 120
-246 209 -370 176z m130 -112 c121 -33 168 -144 110 -258 -29 -59 -96 -118
-141 -127 -88 -16 -194 71 -194 160 0 47 34 128 72 171 32 37 67 57 108 64 3
1 23 -4 45 -10z"/>
<path d="M3128 9064 c-33 -16 -48 -31 -48 -44 0 -11 16 -95 35 -186 19 -92 34
-168 32 -170 -2 -2 -61 55 -132 126 -140 141 -157 150 -209 109 -14 -11 -26
-30 -26 -42 0 -12 20 -100 44 -195 l44 -174 -27 24 c-14 13 -70 65 -124 116
-143 135 -136 131 -202 91 -30 -18 -55 -38 -55 -44 0 -5 26 -30 58 -53 31 -24
124 -101 205 -170 82 -70 160 -136 173 -147 25 -19 25 -19 69 5 30 16 43 30
40 40 -4 14 -80 324 -90 364 -2 11 61 -45 140 -124 l144 -144 46 22 c25 12 45
26 45 32 0 5 -11 71 -24 147 -13 76 -31 197 -40 268 -21 164 -24 175 -39 175
-6 -1 -33 -12 -59 -26z"/>
<path d="M7096 8676 c-80 -128 -148 -240 -151 -248 -4 -10 10 -26 45 -48 28
-18 52 -31 54 -29 2 2 31 47 65 101 l62 96 81 -55 81 -56 19 24 c42 54 42 52
-40 109 -42 29 -79 55 -81 56 -2 2 15 33 39 69 26 40 47 62 54 58 6 -4 51 -36
101 -70 l89 -64 19 23 c35 44 37 55 19 71 -34 30 -286 197 -298 197 -6 0 -77
-105 -158 -234z"/>
<path d="M4755 8664 c-22 -2 -89 -9 -150 -14 -424 -42 -862 -171 -1254 -370
-349 -178 -622 -373 -905 -650 -610 -596 -974 -1330 -1083 -2185 -24 -195 -24
-622 0 -825 72 -583 268 -1113 593 -1601 234 -350 568 -696 909 -940 916 -657
2051 -852 3130 -539 374 108 792 315 1118 553 337 247 647 567 876 907 344
510 543 1054 612 1680 19 168 16 562 -5 745 -79 693 -340 1320 -777 1871 -131
165 -407 441 -571 572 -536 427 -1137 683 -1817 773 -139 19 -571 33 -676 23z
m655 -239 c960 -132 1776 -619 2342 -1395 585 -804 788 -1848 546 -2815 -26
-105 -103 -357 -115 -377 -2 -4 -43 27 -92 70 -288 254 -701 524 -1064 696
-1308 621 -2821 616 -4122 -13 -361 -174 -737 -421 -1023 -670 -52 -44 -98
-81 -102 -81 -12 0 -84 224 -125 390 -170 694 -110 1453 167 2114 174 418 408
765 733 1092 297 298 588 507 947 679 390 186 738 280 1223 329 95 10 575 -4
685 -19z m-195 -3445 c1052 -58 2029 -450 2822 -1135 l112 -96 -33 -77 c-65
-150 -115 -240 -151 -269 -29 -24 -34 -33 -30 -58 4 -20 -1 -38 -14 -54 l-19
-24 -11 21 c-6 12 -16 22 -22 22 -6 0 -56 -37 -112 -81 -56 -45 -144 -110
-194 -146 -51 -35 -93 -66 -93 -69 0 -2 23 -49 50 -104 52 -103 53 -118 17
-148 -10 -9 -24 10 -67 98 -30 61 -58 110 -63 110 -5 0 -57 -29 -116 -64 -58
-35 -155 -90 -216 -122 -60 -31 -111 -58 -113 -59 -1 -1 25 -84 58 -185 33
-100 60 -188 60 -195 0 -15 -47 -48 -53 -37 -3 4 -30 86 -61 182 -30 96 -60
181 -64 188 -7 10 -34 1 -118 -36 -86 -39 -310 -127 -403 -158 -8 -3 -11 -12
-7 -27 3 -12 23 -105 43 -207 20 -102 38 -187 40 -189 4 -6 265 86 373 131
128 54 131 54 87 24 -143 -102 -458 -276 -508 -282 -16 -2 -68 -15 -116 -28
-139 -39 -498 -116 -540 -116 -2 0 -3 -20 -3 -45 0 -39 -3 -45 -24 -51 -36 -9
-46 2 -46 47 0 39 -1 40 -27 35 -60 -12 -327 -36 -485 -42 l-168 -7 0 -59 0
-58 -40 0 -40 0 0 59 0 58 -147 7 c-82 4 -211 13 -288 21 -77 8 -143 15 -147
15 -4 0 -8 -22 -10 -48 l-3 -48 -32 8 c-32 8 -32 10 -27 52 7 50 15 46 -116
66 -117 18 -312 60 -450 97 -74 19 -144 37 -155 38 -29 4 -204 93 -312 158
-115 70 -204 129 -200 133 2 2 57 -18 123 -45 132 -54 334 -125 338 -119 3 3
86 409 86 420 0 3 -12 9 -27 13 -51 12 -257 92 -385 149 -70 31 -131 56 -137
56 -6 0 -38 -85 -72 -189 l-61 -190 -28 21 -28 20 24 77 c13 42 39 123 59 180
19 58 35 108 35 112 0 5 -30 25 -67 45 -38 20 -132 74 -209 120 -78 46 -145
84 -151 84 -5 0 -31 -45 -58 -101 -28 -55 -53 -103 -57 -105 -3 -2 -16 9 -28
26 l-21 30 51 98 52 97 -29 22 c-15 12 -91 69 -168 127 -77 58 -155 118 -173
132 -31 26 -33 26 -51 10 -19 -17 -20 -17 -36 13 -9 18 -13 36 -10 42 4 5 -9
27 -28 48 -32 36 -105 175 -148 283 l-18 47 99 87 c778 679 1781 1087 2807
1143 214 12 296 12 498 1z"/>
<path d="M4870 7480 l0 -640 130 0 130 0 0 640 0 640 -130 0 -130 0 0 -640z"/>
<path d="M3510 7630 l-54 -170 -177 -2 -178 -3 139 -98 c77 -54 140 -104 140
-110 0 -7 -23 -82 -50 -167 -28 -85 -50 -157 -50 -159 0 -9 39 16 159 103
l132 95 140 -101 c77 -55 142 -98 145 -95 3 3 -17 75 -45 160 -28 86 -51 159
-51 164 0 5 63 54 141 108 l140 100 -178 5 -177 5 -54 168 c-30 92 -57 167
-61 167 -4 0 -32 -76 -61 -170z"/>
<path d="M6300 7630 l-54 -170 -177 -2 -178 -3 139 -98 c77 -54 140 -104 140
-110 0 -7 -23 -82 -50 -167 -28 -85 -50 -157 -50 -159 0 -9 39 16 159 103
l132 95 140 -101 c77 -55 142 -98 145 -95 3 3 -17 75 -45 160 -28 86 -51 159
-51 164 0 5 63 54 141 108 l140 100 -178 5 -177 5 -54 168 c-30 92 -57 167
-61 167 -4 0 -32 -76 -61 -170z"/>
<path d="M2446 6298 c29 -101 114 -388 188 -638 l134 -455 120 -3 121 -3 19
63 c182 604 248 818 252 818 3 0 64 -198 135 -440 l130 -440 123 0 c67 0 122
2 122 5 0 2 83 287 185 633 102 346 185 632 185 636 0 4 -57 5 -126 4 -122 -3
-128 -4 -145 -28 -10 -14 -63 -203 -122 -440 -58 -228 -107 -408 -110 -400 -3
8 -58 191 -122 405 -64 215 -121 403 -127 418 -15 39 -36 47 -126 47 -69 0
-81 -3 -99 -22 -13 -15 -63 -165 -142 -429 -66 -223 -121 -414 -122 -425 0
-18 -1 -18 -9 1 -5 11 -55 202 -111 425 -74 294 -107 411 -122 428 -19 21 -28
22 -153 22 l-132 0 54 -182z"/>
<path d="M5796 6298 c29 -101 114 -388 188 -638 l134 -455 120 -3 121 -3 19
63 c182 604 248 818 252 818 3 0 64 -198 135 -440 l130 -440 123 0 c67 0 122
2 122 5 0 2 83 287 185 633 102 346 185 632 185 636 0 4 -57 5 -126 4 -122 -3
-128 -4 -145 -28 -10 -14 -63 -203 -122 -440 -58 -228 -107 -408 -110 -400 -3
8 -58 191 -122 405 -64 215 -121 403 -127 418 -15 39 -36 47 -126 47 -69 0
-81 -3 -99 -22 -13 -15 -63 -165 -142 -429 -66 -223 -121 -414 -122 -425 0
-18 -1 -18 -9 1 -5 11 -55 202 -111 425 -74 294 -107 411 -122 428 -19 21 -28
22 -153 22 l-132 0 54 -182z"/>
<path d="M4940 6140 l-54 -170 -177 -2 -178 -3 139 -98 c77 -54 140 -104 140
-110 0 -7 -23 -82 -50 -167 -28 -85 -50 -157 -50 -159 0 -9 39 16 159 103
l132 95 140 -101 c77 -55 142 -98 145 -95 3 3 -17 75 -45 160 -28 86 -51 159
-51 164 0 5 63 54 141 108 l140 100 -178 5 -177 5 -54 168 c-30 92 -57 167
-61 167 -4 0 -32 -76 -61 -170z"/>
<path d="M3184 4551 c-159 -67 -374 -174 -374 -185 0 -14 107 -106 123 -106 6
0 49 26 96 57 47 32 142 90 211 129 69 40 125 77 125 83 0 12 -64 61 -79 61
-6 0 -52 -18 -102 -39z"/>
<path d="M6618 4557 c-26 -17 -46 -36 -44 -42 1 -5 54 -39 117 -75 63 -36 160
-97 216 -134 l102 -68 70 58 c38 33 68 64 67 69 -4 18 -440 225 -473 225 -4 0
-29 -15 -55 -33z"/>
<path d="M3328 4411 c-136 -76 -321 -193 -325 -206 -2 -10 177 -145 193 -145
4 0 53 44 108 98 56 54 138 128 184 166 45 37 82 71 82 74 0 9 -108 72 -124
72 -6 0 -60 -27 -118 -59z"/>
<path d="M6431 4429 c-25 -16 -49 -33 -53 -37 -5 -5 31 -42 79 -83 48 -40 132
-116 186 -168 112 -109 88 -107 220 -13 42 30 77 59 77 63 0 18 -422 270 -451
268 -8 0 -34 -14 -58 -30z"/>
<path d="M3535 4267 c-55 -46 -138 -120 -185 -164 -76 -72 -83 -83 -70 -96 14
-15 229 -137 240 -137 3 0 18 21 35 48 36 56 161 218 222 286 23 26 43 52 43
56 0 9 -157 90 -174 90 -6 0 -56 -38 -111 -83z"/>
<path d="M6193 4297 c-46 -23 -83 -45 -83 -49 0 -4 23 -33 51 -65 54 -62 167
-210 214 -280 15 -24 32 -43 38 -43 16 0 205 103 235 127 l27 23 -93 89 c-114
110 -274 241 -293 240 -8 0 -51 -19 -96 -42z"/>
<path d="M2612 4260 c-113 -68 -352 -230 -352 -239 0 -6 96 -101 152 -150 l27
-24 59 54 c72 67 228 198 293 247 27 20 49 41 48 47 -1 13 -118 115 -133 115
-6 0 -49 -23 -94 -50z"/>
<path d="M7167 4247 c-37 -34 -67 -65 -67 -68 0 -4 44 -42 98 -85 53 -43 143
-121 200 -172 l103 -94 96 89 c53 49 98 94 100 99 6 19 -416 295 -448 294 -8
-1 -44 -29 -82 -63z"/>
<path d="M3840 4168 c-114 -130 -250 -309 -250 -328 0 -12 326 -150 354 -150
2 0 16 30 31 68 15 37 62 137 105 222 43 85 78 155 77 155 -17 7 -236 88 -247
91 -10 3 -35 -18 -70 -58z"/>
<path d="M5969 4196 c-31 -13 -85 -33 -121 -45 l-65 -22 87 -172 c48 -95 96
-194 106 -220 23 -58 23 -58 171 1 148 60 193 80 193 89 0 22 -294 394 -310
393 -3 -1 -30 -11 -61 -24z"/>
<path d="M2800 4061 c-117 -91 -300 -250 -300 -260 0 -14 283 -232 298 -230 4
0 44 50 89 112 45 62 119 154 163 206 l80 93 -78 56 c-42 30 -90 66 -105 78
-16 13 -32 24 -37 24 -5 0 -54 -36 -110 -79z"/>
<path d="M7010 4116 c-16 -15 -164 -122 -188 -135 -12 -7 0 -26 58 -92 40 -46
113 -138 163 -204 49 -66 95 -121 101 -123 9 -2 179 121 272 197 l29 23 -75
69 c-72 66 -322 271 -338 277 -4 1 -14 -4 -22 -12z"/>
<path d="M4163 3993 c-77 -147 -154 -321 -145 -327 26 -15 431 -110 439 -102
1 1 18 90 38 197 20 107 40 212 46 233 11 41 3 55 -31 56 -8 0 -64 12 -125 25
-60 14 -121 28 -135 31 -23 5 -29 -3 -87 -113z"/>
<path d="M5575 4078 c-71 -16 -139 -31 -151 -33 -21 -5 -20 -7 22 -182 23 -98
48 -204 54 -237 l12 -59 48 6 c56 7 341 75 359 87 9 5 -2 39 -42 126 -51 112
-151 302 -166 315 -3 3 -64 -8 -136 -23z"/>
<path d="M4612 3997 c-17 -60 -86 -437 -81 -442 7 -6 160 -23 282 -31 l107 -7
0 245 0 245 -102 6 c-57 4 -124 10 -150 13 l-46 6 -10 -35z"/>
<path d="M5220 4020 c-36 -4 -100 -8 -142 -9 l-78 -1 0 -247 0 -246 123 7 c67
3 167 11 223 17 l101 11 -19 92 c-10 50 -34 157 -54 239 -41 167 -23 151 -154
137z"/>
<path d="M2073 3881 c-54 -43 -127 -106 -163 -140 l-65 -61 115 -111 114 -111
55 64 c31 34 95 104 143 154 48 49 88 95 88 100 0 6 -42 49 -94 97 l-95 87
-98 -79z"/>
<path d="M7740 3917 c-25 -22 -73 -67 -108 -100 l-63 -60 83 -86 c46 -47 112
-119 148 -159 l65 -73 125 121 125 120 -55 51 c-54 50 -245 210 -265 221 -6 4
-30 -12 -55 -35z"/>
<path d="M3154 3897 c-110 -116 -301 -366 -287 -376 40 -27 202 -125 265 -159
l76 -42 67 127 c37 71 95 175 128 232 49 85 58 106 46 113 -7 5 -48 28 -89 51
-41 24 -96 55 -121 70 l-45 27 -40 -43z"/>
<path d="M6660 3879 c-47 -28 -109 -63 -137 -77 -29 -15 -53 -30 -53 -35 0 -4
22 -45 48 -90 27 -45 82 -145 122 -222 40 -77 75 -142 77 -145 8 -9 363 193
363 206 0 17 -316 412 -330 414 -3 0 -43 -23 -90 -51z"/>
<path d="M3458 3638 c-36 -62 -94 -166 -128 -231 l-62 -117 89 -41 c118 -56
363 -151 375 -147 6 2 27 58 48 123 21 66 58 177 83 247 l45 126 -77 27 c-42
15 -125 49 -186 76 -60 27 -112 49 -115 49 -3 0 -36 -51 -72 -112z"/>
<path d="M6300 3696 c-52 -23 -131 -55 -175 -71 -44 -16 -82 -30 -84 -32 -2
-1 8 -35 24 -74 15 -40 54 -151 86 -248 49 -147 61 -175 76 -173 24 5 271 103
356 141 37 17 67 37 67 44 0 20 -207 395 -242 438 -12 15 -22 13 -108 -25z"/>
<path d="M2334 3637 c-125 -127 -204 -218 -199 -228 16 -25 365 -289 382 -289
4 0 23 28 41 61 18 33 66 115 108 181 41 66 72 124 67 128 -4 4 -56 44 -115
88 -59 44 -127 96 -151 116 l-43 35 -90 -92z"/>
<path d="M7495 3700 c-3 -5 -70 -58 -148 -116 -78 -59 -144 -108 -145 -110 -2
-1 32 -60 75 -131 44 -70 93 -152 109 -180 16 -29 34 -53 39 -53 22 1 374 267
375 284 0 18 -274 316 -291 316 -4 0 -11 -4 -14 -10z"/>
<path d="M3943 3493 c-41 -107 -133 -388 -133 -406 0 -16 62 -37 235 -81 112
-28 325 -70 329 -64 5 6 60 453 61 487 l0 34 -111 23 c-62 12 -156 35 -210 49
-55 15 -109 29 -120 32 -19 4 -25 -5 -51 -74z"/>
<path d="M5840 3535 c-63 -18 -159 -41 -213 -51 -89 -17 -97 -21 -93 -39 5
-20 57 -328 73 -435 l9 -55 44 2 c86 2 469 98 477 119 4 12 -99 326 -141 429
-13 32 -28 60 -32 61 -5 1 -61 -13 -124 -31z"/>
<path d="M4507 3419 c-17 -90 -67 -483 -62 -487 7 -7 218 -29 353 -36 l122 -7
0 264 0 263 -162 12 c-90 7 -182 15 -204 18 -41 6 -41 6 -47 -27z"/>
<path d="M5345 3440 c-27 -4 -116 -11 -197 -15 l-148 -8 0 -263 0 -264 43 0
c67 0 313 19 415 31 l93 12 -7 46 c-3 25 -21 138 -40 251 -19 113 -34 208 -34
213 0 8 -56 7 -125 -3z"/>
<path d="M2762 3383 c-43 -64 -182 -297 -182 -306 0 -6 233 -146 343 -206 69
-37 78 -40 84 -24 16 45 135 328 148 353 l15 29 -78 42 c-42 23 -123 71 -179
106 -55 35 -104 63 -107 63 -3 0 -23 -26 -44 -57z"/>
<path d="M7048 3379 c-43 -27 -124 -74 -180 -105 -57 -31 -104 -58 -106 -59
-1 -1 22 -58 51 -126 30 -68 66 -157 81 -196 15 -40 31 -73 35 -73 19 0 397
213 425 240 13 13 -203 372 -222 369 -4 0 -42 -23 -84 -50z"/>
<path d="M3216 3172 c-15 -29 -101 -233 -135 -319 l-20 -52 57 -27 c131 -61
485 -200 487 -191 1 8 96 377 101 394 5 17 1 24 -12 29 -76 26 -295 115 -372
150 l-92 43 -14 -27z"/>
<path d="M6550 3119 c-74 -32 -175 -73 -223 -91 -78 -28 -88 -34 -83 -52 3
-12 27 -104 52 -206 26 -102 49 -186 50 -188 10 -14 514 191 514 208 0 26
-157 390 -167 389 -5 0 -69 -27 -143 -60z"/>
<path d="M3763 2938 c-6 -24 -29 -116 -52 -205 -22 -89 -41 -164 -41 -167 0
-8 147 -51 290 -85 128 -31 351 -73 356 -68 3 3 44 390 44 413 0 7 -30 17 -67
24 -130 23 -441 101 -508 126 -7 3 -16 -12 -22 -38z"/>
<path d="M6025 2934 c-66 -19 -181 -47 -255 -63 -117 -24 -135 -30 -134 -47 0
-10 11 -106 24 -211 16 -136 27 -193 36 -193 67 0 553 118 577 140 5 4 -15 98
-44 209 -41 153 -57 201 -69 200 -8 -1 -69 -17 -135 -35z"/>
<path d="M4427 2807 c-10 -43 -40 -397 -35 -403 8 -8 243 -31 401 -39 l127 -7
0 215 0 214 -117 7 c-129 7 -316 24 -349 31 -16 4 -23 -1 -27 -18z"/>
<path d="M5400 2814 c-58 -7 -171 -16 -252 -20 l-148 -7 0 -213 0 -214 58 0
c137 1 530 36 550 49 6 4 -1 93 -16 214 l-25 207 -31 -1 c-17 -1 -78 -8 -136
-15z"/>
<path d="M3607 2278 c-52 -262 -54 -237 23 -260 158 -46 636 -147 644 -136 4
5 36 422 33 425 -2 1 -66 14 -143 28 -143 27 -330 71 -443 106 -35 10 -66 19
-70 19 -4 0 -24 -82 -44 -182z"/>
<path d="M6155 2419 c-77 -22 -210 -53 -295 -70 -85 -17 -157 -33 -159 -35 -6
-6 32 -408 40 -417 9 -11 271 40 464 90 77 19 150 38 163 40 12 3 22 10 22 17
0 25 -84 416 -89 415 -3 0 -69 -19 -146 -40z"/>
<path d="M5520 2295 c-115 -16 -364 -35 -454 -35 l-66 0 0 -215 0 -215 63 0
c147 0 589 39 603 53 3 2 -4 97 -16 210 -11 113 -20 208 -20 211 0 3 -3 5 -7
5 -5 -1 -51 -7 -103 -14z"/>
<path d="M4376 2288 c-3 -7 -10 -87 -16 -178 -6 -91 -13 -181 -16 -201 l-5
-36 93 -12 c87 -11 383 -31 456 -31 l32 0 0 214 0 213 -137 7 c-134 7 -289 21
-365 32 -27 4 -39 2 -42 -8z"/>
<path d="M7725 8504 l-27 -36 61 -56 62 -57 -161 -180 -160 -180 39 -37 c22
-21 45 -38 50 -38 5 0 83 79 173 174 l163 175 55 -55 c31 -29 60 -54 66 -54
14 0 64 53 64 67 0 21 -324 313 -346 313 -7 0 -24 -16 -39 -36z"/>
<path d="M2063 8374 c-24 -20 -43 -40 -43 -45 0 -16 373 -424 387 -424 16 0
221 166 222 179 1 13 -48 76 -59 76 -4 0 -39 -25 -76 -55 -37 -31 -70 -52 -74
-48 -4 4 -73 86 -154 181 -81 94 -151 172 -154 172 -4 0 -26 -16 -49 -36z"/>
<path d="M7936 7984 l-210 -205 44 -44 43 -44 91 85 91 84 53 -57 c29 -32 62
-70 73 -85 l19 -26 -94 -79 c-102 -84 -101 -79 -48 -142 l29 -34 231 182 c128
101 232 185 232 189 0 4 -19 29 -43 55 l-42 48 -90 -75 c-49 -42 -92 -76 -95
-76 -3 0 -38 38 -77 84 l-73 85 85 77 c47 42 85 82 85 88 0 11 -80 96 -90 96
-3 -1 -99 -93 -214 -206z"/>
<path d="M1782 8107 c-23 -23 -42 -49 -42 -57 0 -17 152 -303 237 -449 l55
-93 34 33 c42 41 43 69 5 129 l-28 45 65 72 64 72 52 -30 c29 -16 60 -29 69
-29 17 0 87 56 87 70 0 11 -207 119 -398 209 -84 39 -154 71 -155 71 -2 0 -22
-19 -45 -43z m259 -178 c22 -10 39 -23 39 -27 0 -4 -20 -27 -43 -50 -34 -33
-46 -40 -54 -30 -13 17 -93 164 -93 171 0 6 84 -29 151 -64z"/>
<path d="M1507 7790 l-38 -49 63 -49 c35 -27 139 -109 233 -181 l170 -132 18
23 c37 47 49 67 43 77 -10 16 -434 361 -443 361 -4 -1 -25 -23 -46 -50z"/>
<path d="M8320 7559 c-124 -94 -229 -174 -234 -179 -5 -5 17 -45 51 -92 33
-46 77 -109 98 -140 l38 -58 38 22 c22 12 39 26 39 31 0 5 -27 49 -61 99 -33
49 -59 91 -57 92 2 2 29 21 62 44 l59 41 17 -22 c9 -12 32 -44 50 -72 18 -27
34 -51 36 -53 1 -2 21 8 43 23 l41 25 -50 75 c-27 41 -50 78 -50 82 1 9 110
87 114 81 14 -16 126 -182 128 -190 5 -13 35 -4 68 22 l25 19 -87 128 c-48 70
-100 142 -115 160 l-28 31 -225 -169z"/>
<path d="M1357 7550 c-37 -23 -64 -55 -117 -137 -39 -59 -69 -112 -67 -118 4
-11 476 -295 492 -295 10 0 70 88 64 94 -2 2 -44 29 -92 60 -81 52 -87 58 -76
77 11 21 15 21 139 15 l128 -7 36 47 c20 26 33 51 29 55 -10 9 -249 30 -266
23 -8 -3 -12 11 -13 45 -1 63 -38 122 -94 151 -57 29 -107 26 -163 -10z m121
-115 c44 -37 48 -67 16 -125 l-27 -49 -61 40 c-33 22 -67 43 -75 48 -11 7 -9
16 15 49 47 66 85 77 132 37z"/>
<path d="M1120 7218 c-42 -68 -191 -371 -187 -381 2 -6 22 -19 45 -28 l42 -18
37 73 37 74 208 -104 c114 -57 212 -104 218 -104 11 0 50 72 50 92 0 7 -94 63
-209 123 l-210 110 40 72 40 72 -23 12 c-13 7 -33 19 -45 26 -21 14 -24 13
-43 -19z"/>
<path d="M8677 6980 l-217 -219 22 -46 c22 -45 24 -46 58 -40 79 15 364 54
367 51 2 -2 -65 -62 -149 -132 -88 -74 -152 -135 -151 -144 1 -8 9 -32 17 -52
14 -33 20 -37 44 -33 42 7 271 24 435 31 l148 7 -6 25 c-12 50 -34 92 -51 99
-9 3 -98 -4 -197 -15 -99 -12 -181 -21 -183 -19 -1 1 50 46 114 99 199 166
199 165 162 226 -24 39 -24 39 -240 7 -91 -14 -168 -25 -172 -25 -4 0 54 55
129 123 75 67 141 129 146 138 8 12 3 30 -17 70 -16 30 -31 57 -35 60 -3 4
-104 -91 -224 -211z"/>
<path d="M907 6759 c-48 -39 -87 -117 -94 -183 -3 -40 0 -60 19 -95 32 -62 66
-84 138 -89 72 -5 101 11 169 94 51 64 81 75 119 46 22 -16 27 -27 26 -58 -2
-33 -9 -45 -48 -79 -51 -46 -55 -61 -25 -99 26 -34 46 -33 91 4 75 62 111 196
74 269 -22 42 -80 89 -126 101 -68 18 -106 1 -188 -85 -39 -41 -77 -75 -85
-75 -30 0 -57 31 -57 66 0 28 10 45 47 85 l47 51 -21 36 c-11 21 -27 38 -34
40 -8 1 -31 -12 -52 -29z"/>
<path d="M740 6346 c-16 -44 -33 -106 -29 -109 2 -2 83 -26 179 -53 134 -38
182 -56 207 -77 41 -36 50 -79 27 -136 -14 -35 -26 -47 -60 -62 l-42 -19 -187
41 c-103 22 -191 37 -195 32 -13 -13 -31 -116 -23 -123 14 -13 339 -70 395
-70 142 0 238 107 238 267 0 75 -21 125 -74 170 -39 35 -79 51 -284 116 l-143
45 -9 -22z"/>
<path d="M9010 6315 c-103 -29 -166 -79 -212 -169 -31 -59 -31 -173 0 -241 28
-60 73 -109 127 -138 34 -19 56 -22 145 -22 114 0 161 15 223 74 140 129 88
412 -90 486 -55 23 -131 27 -193 10z m152 -125 c97 -27 139 -170 73 -249 -60
-70 -219 -102 -282 -55 -47 35 -73 82 -73 133 0 75 46 127 143 161 60 22 87
24 139 10z"/>
<path d="M749 5716 c-85 -23 -153 -91 -183 -184 -16 -49 -36 -209 -36 -285 l0
-44 286 -12 c157 -7 288 -10 291 -7 8 8 22 156 22 249 2 150 -71 244 -216 282
-68 18 -102 18 -164 1z m191 -153 c81 -42 95 -68 93 -165 -1 -44 -3 -81 -5
-84 -3 -2 -90 3 -194 11 -104 8 -193 15 -197 15 -4 0 -5 24 -1 53 17 146 65
196 190 197 47 0 73 -6 114 -27z"/>
<path d="M9120 5678 c-146 -28 -266 -52 -268 -53 -3 -3 18 -108 23 -113 5 -5
143 13 191 24 16 4 23 0 27 -17 8 -29 -5 -43 -112 -127 l-83 -65 6 -66 c4 -36
9 -67 11 -69 4 -5 197 141 214 162 9 10 19 5 51 -25 44 -42 87 -55 152 -46
119 16 158 124 121 337 -18 99 -20 105 -43 107 -14 1 -144 -21 -290 -49z m244
-114 c13 -35 6 -102 -15 -128 -16 -20 -29 -26 -60 -26 -50 0 -85 32 -94 86 -4
22 -8 44 -9 49 -2 6 25 15 58 21 89 17 113 16 120 -2z"/>
<path d="M9210 5170 c-118 -10 -232 -19 -252 -19 l-38 -1 0 -77 c0 -43 3 -115
7 -160 l6 -83 48 0 49 0 0 99 0 98 98 7 c53 3 161 9 240 12 l142 7 0 46 c0 25
-3 56 -6 69 -7 26 5 26 -294 2z"/>
<path d="M520 5033 l0 -63 186 -2 185 -3 -70 -58 c-39 -32 -123 -108 -186
-169 -114 -110 -115 -111 -115 -157 0 -25 4 -51 8 -57 5 -8 85 -3 295 19 l287
31 0 58 c0 68 22 64 -210 44 -85 -8 -156 -13 -158 -11 -5 4 152 150 253 234
92 77 101 87 108 129 4 24 5 47 2 50 -3 4 -136 9 -296 12 l-289 5 0 -62z"/>
<path d="M8926 4709 c-10 -105 -7 -223 9 -276 20 -69 88 -143 157 -173 99 -42
215 -37 289 13 43 29 95 98 109 145 19 61 32 334 17 344 -6 4 -138 8 -293 8
l-281 0 -7 -61z m368 -76 l128 -6 -7 -71 c-13 -137 -75 -193 -204 -184 -141
10 -210 86 -194 215 l6 53 71 0 c39 0 129 -3 200 -7z"/>
<path d="M796 4421 l-258 -36 6 -75 c4 -41 8 -75 9 -76 1 -1 101 15 222 36
121 21 252 43 290 49 l70 12 -3 42 c-6 80 -9 87 -45 86 -17 -1 -148 -18 -291
-38z"/>
<path d="M939 3963 c-1 -26 -4 -102 -8 -168 l-6 -119 -150 -43 c-82 -24 -157
-46 -165 -49 -9 -3 55 -32 148 -66 l162 -60 -6 -172 c-6 -150 -5 -169 8 -156
8 8 54 66 103 128 48 63 93 116 99 118 6 2 79 -20 161 -50 82 -31 151 -53 154
-50 3 2 -37 65 -87 138 -51 74 -92 137 -92 140 0 4 45 63 100 133 99 127 112
146 88 138 -35 -12 -298 -85 -305 -85 -5 0 -49 59 -97 130 -49 72 -93 133 -97
136 -5 3 -10 -16 -10 -43z"/>
<path d="M8944 3875 c-49 -74 -94 -135 -99 -135 -6 0 -80 20 -165 44 -85 25
-156 43 -158 42 -1 -2 44 -63 101 -137 l104 -133 -93 -140 c-51 -77 -92 -141
-90 -143 1 -2 71 22 155 52 83 30 155 55 160 55 4 0 49 -54 100 -119 51 -66
98 -124 105 -130 11 -9 13 21 12 160 l-1 172 153 55 c83 30 152 58 152 61 0 3
-71 26 -159 51 l-159 44 -6 60 c-3 32 -6 108 -6 167 0 60 -4 109 -9 109 -4 0
-48 -61 -97 -135z"/>
<path d="M1380 2829 c-140 -93 -254 -175 -252 -181 5 -17 84 -128 91 -128 4 0
46 29 95 65 l89 64 19 -25 c24 -29 22 -47 -17 -191 -15 -56 -25 -111 -22 -125
6 -23 89 -130 106 -136 5 -2 12 16 15 40 4 24 19 95 34 159 l27 116 40 -14
c123 -44 247 51 232 177 -3 27 -16 68 -28 92 -17 34 -138 214 -169 250 -3 4
-120 -69 -260 -163z m298 -68 c43 -66 43 -110 1 -145 -17 -14 -39 -26 -50 -26
-42 0 -94 42 -133 107 -6 12 117 112 139 113 6 0 25 -22 43 -49z"/>
<path d="M8335 2940 c-28 -38 -36 -57 -32 -78 3 -15 37 -118 76 -230 l71 -204
-68 7 c-72 7 -323 42 -369 51 -25 5 -35 -1 -77 -46 l-49 -52 44 -42 c24 -24
124 -121 222 -216 l177 -174 50 49 c28 27 49 52 48 55 -2 3 -70 68 -152 144
-132 124 -145 138 -115 132 61 -11 293 -36 336 -36 34 0 46 5 68 32 34 40 32
55 -38 267 -30 88 -53 161 -51 161 1 0 75 -52 165 -116 89 -63 165 -112 169
-107 4 4 24 32 43 62 l36 55 -252 168 c-139 92 -255 168 -259 168 -3 0 -23
-23 -43 -50z"/>
<path d="M2117 2344 c-45 -24 -343 -139 -469 -180 -65 -21 -118 -41 -118 -44
1 -15 103 -110 119 -110 11 0 45 10 76 22 l57 21 90 -91 91 -90 -21 -60 c-12
-32 -22 -66 -22 -75 0 -14 89 -108 111 -115 5 -2 9 3 9 10 0 22 96 318 157
482 l55 148 -48 49 c-27 27 -51 49 -54 49 -3 -1 -18 -8 -33 -16z m-26 -166
c-5 -13 -27 -64 -48 -115 l-39 -92 -64 64 -63 63 104 50 c57 28 107 51 111 51
4 1 3 -9 -1 -21z"/>
<path d="M7594 2105 l-51 -44 34 -113 c19 -62 59 -207 88 -323 30 -115 57
-209 60 -209 21 4 105 78 110 97 3 12 -3 49 -13 81 l-19 59 96 82 96 83 58
-30 c51 -25 63 -28 87 -18 37 15 107 88 95 99 -6 5 -50 25 -100 46 -66 28
-430 202 -485 232 -3 2 -28 -17 -56 -42z m219 -184 c42 -24 77 -46 77 -50 0
-10 -120 -115 -124 -110 -2 2 -18 49 -36 104 -18 55 -35 107 -38 115 -5 13 -3
13 18 -1 14 -9 60 -35 103 -58z"/>
<path d="M2441 1978 c-27 -35 -113 -144 -190 -243 l-141 -180 41 -35 c58 -48
273 -210 280 -210 8 0 59 76 59 87 0 5 -31 29 -68 55 -37 27 -80 58 -95 70
l-28 23 151 205 151 205 -38 33 c-68 59 -67 59 -122 -10z"/>
<path d="M7235 1829 c-22 -17 -44 -34 -48 -39 -5 -4 21 -54 57 -111 l66 -104
-26 -21 c-34 -28 -183 -118 -188 -113 -2 2 -26 47 -55 99 -28 52 -55 101 -60
108 -6 11 -20 7 -65 -18 -31 -18 -56 -34 -56 -36 0 -3 63 -128 141 -279 l140
-275 47 24 c94 49 93 38 26 162 -32 60 -59 112 -59 116 0 6 147 102 197 129
14 7 28 -10 84 -99 36 -59 68 -109 70 -110 4 -6 124 78 124 86 0 13 -334 506
-345 508 -5 1 -28 -11 -50 -27z"/>
<path d="M2700 1504 c-128 -210 -160 -268 -149 -275 92 -62 350 -209 367 -209
8 0 42 63 42 79 0 4 -54 39 -120 76 l-120 68 38 68 c20 38 40 69 44 69 4 0 47
-23 95 -50 l88 -50 24 47 c13 26 19 49 15 50 -5 2 -46 25 -91 51 l-82 47 37
63 c20 34 40 62 44 62 4 0 52 -25 105 -55 54 -30 103 -55 108 -55 6 0 21 20
32 43 l21 44 -45 22 c-38 18 -205 116 -269 158 -20 13 -28 2 -184 -253z"/>
<path d="M3300 1483 c-78 -169 -241 -536 -238 -538 2 -2 32 -17 68 -34 l64
-30 14 32 c93 220 222 534 222 540 0 7 -94 57 -108 57 -5 0 -15 -12 -22 -27z"/>
<path d="M6465 1411 c-83 -33 -119 -52 -117 -62 3 -13 194 -571 197 -576 4 -7
135 50 135 58 0 5 -16 50 -35 101 -40 106 -41 114 -19 122 30 12 44 6 150 -64
58 -38 111 -70 117 -70 15 0 147 62 147 69 0 8 -244 151 -258 151 -7 0 -1 20
13 46 48 90 24 198 -54 251 -58 39 -132 32 -276 -26z m192 -76 c47 -33 50
-108 6 -147 -18 -17 -93 -52 -97 -46 -2 2 -14 35 -28 73 -15 39 -29 77 -33 86
-5 13 4 20 37 32 56 20 89 21 115 2z"/>
<path d="M3650 1331 c-93 -30 -155 -87 -199 -181 -37 -79 -37 -193 1 -266 57
-109 184 -185 324 -192 46 -3 98 -2 116 2 l34 6 30 130 31 130 -56 16 c-31 8
-76 22 -100 30 -60 19 -59 19 -72 -26 -15 -48 -4 -65 47 -75 25 -4 34 -11 30
-20 -2 -7 -8 -30 -12 -49 -8 -46 -34 -53 -108 -32 -144 42 -194 166 -125 305
34 68 82 108 142 118 48 7 125 -20 175 -62 22 -19 48 -35 57 -35 23 0 75 38
75 55 0 24 -100 103 -158 126 -61 23 -189 34 -232 20z"/>
<path d="M6153 1301 c-29 -9 -54 -19 -57 -22 -3 -3 17 -86 44 -184 61 -219 63
-254 17 -300 -18 -18 -52 -38 -76 -45 -36 -9 -48 -8 -79 7 -60 29 -74 62 -116
271 -27 134 -43 191 -51 188 -7 -2 -33 -8 -59 -11 -25 -4 -48 -10 -50 -14 -5
-8 60 -375 75 -419 20 -60 84 -120 147 -138 141 -41 318 32 368 152 27 65 18
139 -42 335 -31 101 -59 187 -63 190 -3 3 -29 -1 -58 -10z"/>
<path d="M4112 908 c-34 -165 -61 -302 -59 -304 2 -2 34 -10 71 -18 50 -10 68
-11 71 -2 2 6 9 43 15 81 6 39 15 93 21 121 l10 50 72 -12 c40 -6 94 -15 121
-19 l49 -7 -7 -66 c-4 -37 -9 -97 -13 -134 l-6 -66 67 -7 c37 -4 69 -6 71 -3
2 2 16 140 31 307 31 342 34 323 -51 319 l-50 -3 -14 -120 c-7 -66 -15 -121
-16 -123 -8 -9 -235 33 -235 43 0 6 9 62 20 125 12 62 19 115 16 117 -6 7 -77
22 -102 23 -19 0 -25 -22 -82 -302z"/>
<path d="M5192 1133 l-83 -4 6 -222 c3 -122 8 -264 11 -314 l6 -93 31 0 c18 0
88 5 156 10 182 14 262 55 319 165 33 64 37 181 8 264 -27 79 -112 164 -185
185 -52 15 -80 16 -269 9z m221 -107 c91 -38 145 -199 102 -303 -31 -75 -74
-102 -175 -110 l-68 -6 -5 29 c-3 16 -9 99 -12 184 -3 85 -8 167 -11 182 -4
22 -1 27 18 31 50 9 120 6 151 -7z"/>
<path d="M4746 810 c-14 -73 -12 -77 55 -84 34 -3 93 -6 130 -6 l69 0 0 55 0
55 -79 0 c-43 0 -98 3 -123 6 -44 6 -45 6 -52 -26z"/>
</g>
</svg>
